<?xml version="1.0" standalone="no"?>
<!DOCTYPE svg PUBLIC "-//W3C//DTD SVG 20010904//EN"
 "http://www.w3.org/TR/2001/REC-SVG-20010904/DTD/svg10.dtd">
<svg version="1.0" xmlns="http://www.w3.org/2000/svg"
 width="700.000000pt" height="700.000000pt" viewBox="0 0 700.000000 700.000000"
 preserveAspectRatio="xMidYMid meet">
<metadata>
Created by potrace 1.14, written by Peter Selinger 2001-2017
</metadata>
<g transform="translate(0.000000,700.000000) scale(0.100000,-0.100000)"
fill="#000000" stroke="none">
<path d="M3467 6794 c-1 -1 -58 -4 -127 -8 -491 -24 -910 -200 -1238 -520
-306 -299 -498 -712 -556 -1196 -15 -128 -18 -397 -5 -505 5 -38 11 -92 14
-120 4 -27 18 -102 32 -165 128 -581 471 -1030 978 -1283 184 -91 449 -166
655 -183 30 -3 73 -7 95 -9 48 -6 314 -6 370 0 22 2 69 7 105 10 36 3 72 8 80
10 8 2 31 6 50 9 514 80 970 382 1247 826 112 180 216 450 256 665 38 200 42
247 42 470 0 243 -15 375 -67 580 -69 277 -207 557 -373 755 -277 331 -625
532 -1082 625 -91 19 -463 49 -476 39z m217 -319 c222 -39 428 -194 539 -405
79 -151 162 -423 202 -665 23 -143 23 -143 30 -225 3 -41 8 -102 11 -135 3
-33 6 -148 6 -255 -1 -180 -4 -249 -17 -370 -3 -25 -7 -67 -10 -93 -21 -222
-116 -577 -205 -769 -116 -252 -309 -404 -572 -451 -73 -14 -282 -15 -336 -3
-249 57 -392 153 -514 346 -102 161 -199 466 -252 795 -7 39 -13 95 -21 175
-3 36 -8 83 -10 105 -6 50 -6 477 -1 525 2 19 7 73 10 119 4 46 8 87 10 90 2
3 6 33 10 66 3 33 8 71 11 85 3 14 8 39 11 55 30 169 109 421 173 559 120 258
332 422 586 452 22 3 41 7 43 9 6 6 253 -3 296 -10z"/>
<path d="M4559 1356 c-169 -171 -399 -404 -512 -518 -112 -115 -206 -208 -209
-208 -3 0 -6 210 -6 468 0 257 -1 483 -1 503 l-1 37 -1085 0 -1085 0 0 -74 0
-74 1012 -2 1013 -3 0 -608 c0 -334 2 -607 6 -607 4 0 279 277 1081 1091 l156
159 209 -1 c114 0 236 0 271 0 l62 1 0 73 0 74 -302 0 -301 0 -308 -311z"/>
</g>
</svg>
