<svg xmlns="http://www.w3.org/2000/svg" viewBox="0 0 159 197.47"><g><path style="stroke-width:0;fill:#145761" d="M8.02 162.91h144.57v28.35H8.02z"/><path style="stroke-width:0;fill:#5e7f87" d="M8.02 130.31h144.57v28.35H8.02z"/><path style="fill:#a1b0b6;stroke-width:0" d="M8.02 97.72h144.57v28.35H8.02z"/><path style="fill:#cfd5d9;stroke-width:0" d="M8.02 11.2h144.57v28.35H8.02z"/></g><path style="stroke-width:0;fill:#145761" d="M43.24 47.63c3.58 2.13 6.3 5.03 8.17 8.69 1.87 3.66 2.81 7.73 2.81 12.2s-.94 8.54-2.81 12.2-4.6 6.56-8.17 8.69c-3.58 2.13-7.85 3.2-12.81 3.2s-9.17-1.07-12.75-3.2c-3.58-2.14-6.3-5.03-8.17-8.69-1.87-3.66-2.81-7.73-2.81-12.2s.93-8.54 2.81-12.2c1.87-3.66 4.6-6.56 8.17-8.69 3.58-2.14 7.83-3.2 12.75-3.2s9.23 1.07 12.81 3.2ZM21.28 82.92c1.71 4.11 4.76 6.16 9.15 6.16s7.5-2.05 9.21-6.16c1.71-4.11 2.56-8.91 2.56-14.4s-.84-10.27-2.53-14.33c-1.69-4.07-4.77-6.1-9.24-6.1s-7.44 2.04-9.15 6.13-2.56 8.86-2.56 14.3.85 10.29 2.56 14.4Zm75.67 5.31c.45.49 1.06.83 1.83 1.04.77.2 1.93.37 3.48.49v2.26H77.13v-2.26c2.28-.08 3.84-.27 4.7-.58.85-.31 1.28-.86 1.28-1.68 0-.65-.18-1.46-.55-2.44l-2.44-6.59H66.4l-1.77 4.64c-.45 1.22-.67 2.18-.67 2.87 0 1.02.52 1.81 1.56 2.38 1.04.57 2.82 1.04 5.34 1.4v2.26H51.95v-2.26c1.99-.33 3.46-.69 4.39-1.1s1.68-1.01 2.23-1.8 1.17-2.08 1.86-3.87l11.53-29.4-2.81-6.28 9.09-3.48 17.45 42.21c.41.98.83 1.71 1.28 2.2ZM78.83 74.99l-5.31-14.46h-.24l-5.55 14.46h11.1Zm31.14 13.48V48.51l-5.19-1.22v-2.26h20.8v2.26l-5.12 1.22v18.12l14.64-15.74c.57-.57.85-1.2.85-1.89 0-.57-.39-.99-1.16-1.25-.77-.26-1.95-.44-3.54-.52v-2.2h17.51v2.26c-2.81.45-4.76.91-5.86 1.37-1.1.47-2.16 1.27-3.17 2.41l-10.74 11.71 18.54 25.8 5.55 1.16V92h-16.29l-15.01-21.41-1.34 1.4v16.47l5.12 1.28V92h-20.8v-2.26l5.19-1.28Z"/></svg>