<?xml version="1.0" encoding="UTF-8"?>
<svg xmlns="http://www.w3.org/2000/svg" viewBox="0 0 726.51 230.1">
	<defs>
		<style>
			.cls-1 {
				fill: #000;
				stroke-width: 0px;
			}
		</style>
	</defs>
	<path class="cls-1" d="M489.3,7.85c-2.03-1.19-4.44-1.78-7.22-1.78s-5.15.59-7.17,1.78c-2.03,1.19-3.59,2.88-4.7,5.09s-1.65,4.84-1.65,7.91.55,5.71,1.65,7.91,2.67,3.9,4.7,5.09,4.42,1.78,7.17,1.78,5.19-.59,7.22-1.78c2.03-1.19,3.59-2.88,4.7-5.09,1.1-2.2,1.65-4.84,1.65-7.91s-.55-5.71-1.65-7.91c-1.1-2.2-2.67-3.9-4.7-5.09ZM489.74,26.65c-.7,1.61-1.69,2.83-2.98,3.67-1.29.84-2.85,1.26-4.67,1.26s-3.34-.42-4.63-1.26-2.28-2.07-2.98-3.67c-.7-1.61-1.04-3.54-1.04-5.8s.35-4.23,1.04-5.83c.7-1.59,1.69-2.81,2.98-3.65s2.83-1.26,4.63-1.26,3.38.42,4.67,1.26c1.29.84,2.28,2.06,2.98,3.65.7,1.59,1.04,3.54,1.04,5.83s-.35,4.2-1.04,5.8Z"/>
	<path class="cls-1" d="M522.87,18.22c-.84-1.67-1.99-2.95-3.44-3.85-1.45-.9-3.06-1.35-4.83-1.35-1.3,0-2.5.25-3.59.74-1.09.49-1.99,1.17-2.72,2.04-.45.53-.81,1.12-1.11,1.76l-.23-4.1h-4.13v30.87h4.65v-12.73c.55,1,1.3,1.86,2.26,2.58,1.3.97,2.88,1.46,4.74,1.46s3.43-.45,4.89-1.35c1.46-.9,2.62-2.2,3.48-3.89.85-1.7,1.28-3.73,1.28-6.11s-.42-4.4-1.26-6.07ZM517.89,29.85c-1.06,1.33-2.53,2-4.41,2-1.22,0-2.28-.3-3.17-.91-.9-.61-1.59-1.48-2.09-2.61-.49-1.13-.74-2.46-.74-4s.25-2.91.76-4.02c.51-1.12,1.22-1.99,2.13-2.61s1.98-.94,3.2-.94c1.85,0,3.3.67,4.35,2.02,1.04,1.35,1.57,3.2,1.57,5.54s-.53,4.19-1.59,5.52Z"/>
	<path class="cls-1" d="M535,34.28c1.65.9,3.57,1.35,5.74,1.35,1.45,0,2.78-.2,4-.61,1.22-.41,2.27-.99,3.15-1.76.88-.77,1.59-1.67,2.11-2.72l-3.7-1.74c-.52.99-1.23,1.75-2.13,2.3-.9.55-2.07.83-3.52.83-1.3,0-2.44-.29-3.39-.87-.96-.58-1.7-1.44-2.22-2.57-.37-.8-.6-1.73-.71-2.78h15.93c.06-.35.1-.75.13-1.22.03-.46.04-.96.04-1.48,0-1.91-.39-3.62-1.17-5.13-.78-1.51-1.91-2.7-3.39-3.57-1.48-.87-3.28-1.3-5.39-1.3s-3.9.45-5.52,1.35c-1.62.9-2.89,2.2-3.8,3.89-.91,1.7-1.37,3.72-1.37,6.07s.46,4.37,1.37,6.07c.91,1.7,2.2,2.99,3.85,3.89ZM535,20.17c.49-1.15,1.2-2.01,2.13-2.59.93-.58,2.01-.87,3.26-.87,1.71,0,3.06.53,4.04,1.59.86.93,1.32,2.22,1.43,3.85h-11.43c.12-.73.31-1.39.56-1.98Z"/>
	<path class="cls-1" d="M562.05,23.63c0-1.65.3-2.97.89-3.96.59-.99,1.34-1.7,2.24-2.15s1.83-.67,2.78-.67c1.33,0,2.44.41,3.33,1.24.88.83,1.33,2.31,1.33,4.46v12.65h4.65v-14.09c0-1.83-.36-3.33-1.09-4.52-.73-1.19-1.7-2.08-2.94-2.67-1.23-.59-2.62-.89-4.15-.89-1.19,0-2.31.19-3.37.57-1.06.38-1.97.98-2.74,1.8-.5.53-.91,1.16-1.25,1.87l-.21-3.8h-4.13v21.74h4.65v-11.57Z"/>
	<path class="cls-1" d="M477.6,58.68l-10.83,28.7h4.78l2.74-7.52h12.04l2.74,7.52h4.91l-10.83-28.7h-5.57ZM475.6,76.07l4.74-13.39,4.7,13.39h-9.44Z"/>
	<path class="cls-1" d="M512.85,82.18c-.48.62-1.08,1.1-1.8,1.43-.72.33-1.58.5-2.57.5-1.28,0-2.38-.29-3.3-.87s-1.64-1.44-2.13-2.57c-.49-1.13-.74-2.51-.74-4.13s.24-3.04.72-4.17,1.18-1.99,2.11-2.59c.93-.59,2.04-.89,3.35-.89s2.41.36,3.24,1.07,1.43,1.73,1.8,3.07l4.39-1.74c-.44-1.19-1.07-2.25-1.91-3.17-.84-.93-1.88-1.64-3.11-2.15-1.23-.51-2.72-.76-4.46-.76-2.09,0-3.95.45-5.59,1.35-1.64.9-2.91,2.2-3.83,3.89-.91,1.7-1.37,3.72-1.37,6.07s.46,4.37,1.37,6.07c.91,1.7,2.2,2.99,3.85,3.89s3.55,1.35,5.7,1.35c1.65,0,3.12-.27,4.39-.8,1.28-.54,2.34-1.29,3.2-2.26.86-.97,1.49-2.11,1.89-3.41l-4.22-1.44c-.17.9-.5,1.66-.98,2.28Z"/>
	<path class="cls-1" d="M528.39,86.47c1.65.9,3.55,1.35,5.7,1.35,1.65,0,3.12-.27,4.39-.8,1.28-.54,2.34-1.29,3.2-2.26.86-.97,1.49-2.11,1.89-3.41l-4.22-1.44c-.17.9-.5,1.66-.98,2.28-.48.62-1.08,1.1-1.8,1.43-.72.33-1.58.5-2.57.5-1.28,0-2.38-.29-3.3-.87s-1.64-1.44-2.13-2.57c-.49-1.13-.74-2.51-.74-4.13s.24-3.04.72-4.17,1.18-1.99,2.11-2.59c.93-.59,2.04-.89,3.35-.89s2.41.36,3.24,1.07,1.43,1.73,1.8,3.07l4.39-1.74c-.44-1.19-1.07-2.25-1.91-3.17-.84-.93-1.88-1.64-3.11-2.15-1.23-.51-2.72-.76-4.46-.76-2.09,0-3.95.45-5.59,1.35-1.64.9-2.91,2.2-3.83,3.89-.91,1.7-1.37,3.72-1.37,6.07s.46,4.37,1.37,6.07c.91,1.7,2.2,2.99,3.85,3.89Z"/>
	<path class="cls-1" d="M568.92,82.73l-3.7-1.74c-.52.99-1.23,1.75-2.13,2.3-.9.55-2.07.83-3.52.83-1.3,0-2.44-.29-3.39-.87-.96-.58-1.7-1.44-2.22-2.57-.37-.8-.6-1.73-.71-2.78h15.93c.06-.35.1-.75.13-1.22.03-.46.04-.96.04-1.48,0-1.91-.39-3.62-1.17-5.13-.78-1.51-1.91-2.7-3.39-3.57-1.48-.87-3.28-1.3-5.39-1.3s-3.9.45-5.52,1.35c-1.62.9-2.89,2.2-3.8,3.89-.91,1.7-1.37,3.72-1.37,6.07s.46,4.37,1.37,6.07c.91,1.7,2.2,2.99,3.85,3.89s3.57,1.35,5.74,1.35c1.45,0,2.78-.2,4-.61,1.22-.41,2.27-.99,3.15-1.76.88-.77,1.59-1.67,2.11-2.72ZM553.92,72.35c.49-1.15,1.2-2.01,2.13-2.59.93-.58,2.01-.87,3.26-.87,1.71,0,3.06.53,4.04,1.59.86.93,1.32,2.22,1.43,3.85h-11.43c.12-.73.31-1.39.56-1.98Z"/>
	<path class="cls-1" d="M576.44,68.59c-.7,1.02-1.04,2.12-1.04,3.3,0,1.59.49,2.91,1.48,3.94.98,1.03,2.64,1.78,4.96,2.24l4.57.96c1.01.23,1.7.56,2.07.98s.54.91.54,1.46c0,.84-.39,1.49-1.17,1.96-.78.46-1.84.7-3.17.7-1.68,0-3.12-.35-4.33-1.06-1.2-.71-2.12-1.66-2.76-2.85l-3.22,2.78c1.04,1.54,2.46,2.72,4.26,3.57,1.8.84,3.78,1.26,5.96,1.26,1.88,0,3.51-.29,4.87-.87,1.36-.58,2.41-1.4,3.13-2.46.72-1.06,1.09-2.28,1.09-3.67s-.43-2.57-1.28-3.54c-.86-.97-2.33-1.66-4.41-2.07l-4.96-1.04c-1.13-.23-1.91-.57-2.35-1-.44-.43-.65-.94-.65-1.52s.17-1.03.52-1.43.85-.72,1.52-.96c.67-.23,1.46-.35,2.39-.35,1.16,0,2.28.28,3.35.85,1.07.57,1.88,1.43,2.44,2.59l3.22-2.7c-.81-1.42-1.99-2.51-3.52-3.28-1.54-.77-3.39-1.15-5.57-1.15-1.88,0-3.5.31-4.85.93-1.35.62-2.37,1.44-3.07,2.46Z"/>
	<path class="cls-1" d="M613.53,86.94c1.36-.58,2.41-1.4,3.13-2.46.72-1.06,1.09-2.28,1.09-3.67s-.43-2.57-1.28-3.54c-.86-.97-2.33-1.66-4.41-2.07l-4.96-1.04c-1.13-.23-1.91-.57-2.35-1-.44-.43-.65-.94-.65-1.52s.17-1.03.52-1.43.85-.72,1.52-.96c.67-.23,1.46-.35,2.39-.35,1.16,0,2.28.28,3.35.85,1.07.57,1.88,1.43,2.44,2.59l3.22-2.7c-.81-1.42-1.99-2.51-3.52-3.28-1.54-.77-3.39-1.15-5.57-1.15-1.88,0-3.5.31-4.85.93-1.35.62-2.37,1.44-3.07,2.46-.7,1.02-1.04,2.12-1.04,3.3,0,1.59.49,2.91,1.48,3.94.98,1.03,2.64,1.78,4.96,2.24l4.57.96c1.01.23,1.7.56,2.07.98s.54.91.54,1.46c0,.84-.39,1.49-1.17,1.96-.78.46-1.84.7-3.17.7-1.68,0-3.12-.35-4.33-1.06-1.2-.71-2.12-1.66-2.76-2.85l-3.22,2.78c1.04,1.54,2.46,2.72,4.26,3.57,1.8.84,3.78,1.26,5.96,1.26,1.88,0,3.51-.29,4.87-.87Z"/>
	<polygon class="cls-1" points="493.69 110.86 488 110.86 474.82 125.15 474.82 110.86 470.17 110.86 470.17 139.56 474.82 139.56 474.82 130.72 479.47 125.72 488.47 139.56 493.95 139.56 482.84 122.6 493.69 110.86"/>
	<path class="cls-1" d="M512.83,118.73c-1.62-.9-3.49-1.35-5.61-1.35s-3.99.45-5.61,1.35c-1.62.9-2.9,2.2-3.83,3.89-.93,1.7-1.39,3.72-1.39,6.07s.46,4.37,1.39,6.07c.93,1.7,2.2,2.99,3.83,3.89,1.62.9,3.49,1.35,5.61,1.35s3.99-.45,5.61-1.35c1.62-.9,2.89-2.2,3.8-3.89.91-1.7,1.37-3.72,1.37-6.07s-.46-4.37-1.37-6.07c-.91-1.7-2.18-2.99-3.8-3.89ZM512.61,132.84c-.49,1.15-1.19,2.02-2.09,2.61-.9.59-2,.89-3.3.89s-2.41-.3-3.33-.89c-.91-.59-1.62-1.46-2.11-2.61-.49-1.14-.74-2.53-.74-4.15s.25-3.04.74-4.17c.49-1.13,1.2-1.99,2.11-2.59.91-.59,2.02-.89,3.33-.89s2.41.3,3.3.89c.9.59,1.59,1.46,2.09,2.59.49,1.13.74,2.52.74,4.17s-.25,3.01-.74,4.15Z"/>
	<path class="cls-1" d="M555.09,118.25c-1.22-.58-2.52-.87-3.91-.87-.96,0-1.93.15-2.91.46-.99.3-1.88.78-2.7,1.41-.81.64-1.45,1.43-1.91,2.39-.67-1.42-1.66-2.49-2.98-3.2-1.32-.71-2.76-1.07-4.33-1.07-1.42,0-2.76.33-4.02,1-1.26.67-2.27,1.7-3.02,3.09l-.22-3.65h-4.13v21.74h4.65v-11.57c0-1.62.29-2.93.87-3.91.58-.99,1.3-1.71,2.17-2.17.87-.46,1.74-.7,2.61-.7,1.3,0,2.38.39,3.22,1.17.84.78,1.26,2.06,1.26,3.83v13.35h4.65v-11.83c0-1.42.26-2.62.78-3.59.52-.97,1.21-1.7,2.07-2.2.85-.49,1.79-.74,2.8-.74,1.3,0,2.38.39,3.22,1.17.84.78,1.26,2.06,1.26,3.83v13.35h4.65v-14.09c0-1.85-.38-3.38-1.13-4.57s-1.74-2.07-2.96-2.65Z"/>
	<path class="cls-1" d="M597.44,118.25c-1.22-.58-2.52-.87-3.91-.87-.96,0-1.93.15-2.91.46-.99.3-1.88.78-2.7,1.41-.81.64-1.45,1.43-1.91,2.39-.67-1.42-1.66-2.49-2.98-3.2-1.32-.71-2.76-1.07-4.33-1.07-1.42,0-2.76.33-4.02,1-1.26.67-2.27,1.7-3.02,3.09l-.22-3.65h-4.13v21.74h4.65v-11.57c0-1.62.29-2.93.87-3.91.58-.99,1.3-1.71,2.17-2.17.87-.46,1.74-.7,2.61-.7,1.3,0,2.38.39,3.22,1.17.84.78,1.26,2.06,1.26,3.83v13.35h4.65v-11.83c0-1.42.26-2.62.78-3.59.52-.97,1.21-1.7,2.07-2.2.85-.49,1.79-.74,2.8-.74,1.3,0,2.38.39,3.22,1.17.84.78,1.26,2.06,1.26,3.83v13.35h4.65v-14.09c0-1.85-.38-3.38-1.13-4.57s-1.74-2.07-2.96-2.65Z"/>
	<path class="cls-1" d="M624.36,118.69c-1.48-.87-3.28-1.3-5.39-1.3s-3.9.45-5.52,1.35c-1.62.9-2.89,2.2-3.8,3.89-.91,1.7-1.37,3.72-1.37,6.07s.46,4.37,1.37,6.07c.91,1.7,2.2,2.99,3.85,3.89s3.57,1.35,5.74,1.35c1.45,0,2.78-.2,4-.61,1.22-.41,2.27-.99,3.15-1.76.88-.77,1.59-1.67,2.11-2.72l-3.7-1.74c-.52.99-1.23,1.75-2.13,2.3-.9.55-2.07.83-3.52.83-1.3,0-2.44-.29-3.39-.87-.96-.58-1.7-1.44-2.22-2.57-.37-.8-.6-1.73-.71-2.78h15.93c.06-.35.1-.75.13-1.22.03-.46.04-.96.04-1.48,0-1.91-.39-3.62-1.17-5.13-.78-1.51-1.91-2.7-3.39-3.57ZM612.93,126.51c.12-.73.31-1.39.56-1.98.49-1.15,1.2-2.01,2.13-2.59.93-.58,2.01-.87,3.26-.87,1.71,0,3.06.53,4.04,1.59.86.93,1.32,2.22,1.43,3.85h-11.43Z"/>
	<path class="cls-1" d="M651.73,118.27c-1.23-.59-2.62-.89-4.15-.89-1.19,0-2.31.19-3.37.57-1.06.38-1.97.98-2.74,1.8-.5.53-.91,1.16-1.25,1.87l-.21-3.8h-4.13v21.74h4.65v-11.57c0-1.65.3-2.97.89-3.96.59-.99,1.34-1.7,2.24-2.15s1.83-.67,2.78-.67c1.33,0,2.44.41,3.33,1.24.88.83,1.33,2.31,1.33,4.46v12.65h4.65v-14.09c0-1.83-.36-3.33-1.09-4.52-.73-1.19-1.7-2.08-2.94-2.67Z"/>
	<path class="cls-1" d="M675.15,135.75c-.58.25-1.26.37-2.04.37-.96,0-1.72-.25-2.28-.74-.57-.49-.85-1.28-.85-2.35v-11.57h7.48v-3.65h-7.48v-6.39l-4.65,1.3v5.09h-4.17v3.65h4.17v12.35c.03,1.48.33,2.67.91,3.59s1.39,1.57,2.44,1.98,2.19.61,3.44.61,2.27-.17,3.24-.5c.97-.33,1.79-.79,2.46-1.37l-1.04-3.39c-.49.44-1.03.78-1.61,1.02Z"/>
	<path class="cls-1" d="M700.46,134.82v-9.7c0-1.77-.38-3.22-1.15-4.35-.77-1.13-1.82-1.98-3.15-2.54-1.33-.57-2.87-.85-4.61-.85-2.55,0-4.63.54-6.24,1.61-1.61,1.07-2.69,2.49-3.24,4.26l3.91,1.65c.44-1.36,1.12-2.35,2.04-2.96.93-.61,2.04-.91,3.35-.91,1.39,0,2.49.4,3.28,1.2.8.8,1.2,1.92,1.2,3.37v.83l-7.74,1.52c-1.94.38-3.44,1.09-4.5,2.13-1.06,1.04-1.59,2.38-1.59,4,0,1.3.31,2.4.94,3.28.62.88,1.48,1.54,2.57,1.98,1.09.44,2.31.65,3.67.65,1.1,0,2.19-.18,3.26-.54s2.01-.91,2.83-1.65c.33-.3.59-.63.83-.99.1.4.25.76.45,1.08.42.68,1,1.19,1.74,1.52s1.57.5,2.5.5c1.01,0,1.86-.16,2.52-.48l.26-3.22c-.49.15-1,.22-1.52.22-1.07,0-1.61-.54-1.61-1.61ZM695.85,131.51c0,.87-.15,1.62-.46,2.24-.3.62-.73,1.13-1.28,1.52s-1.17.67-1.85.85c-.68.17-1.38.26-2.11.26-1.04,0-1.88-.24-2.5-.72-.62-.48-.94-1.12-.94-1.94s.3-1.48.91-1.91c.61-.43,1.52-.77,2.74-1l5.48-1.13v1.82Z"/>
	<path class="cls-1" d="M721.68,117.49c-.44-.07-.87-.11-1.3-.11-1.68,0-3.09.37-4.24,1.11s-2.01,1.82-2.59,3.24l-.43-3.91h-3.96v21.74h4.65v-11.52c0-1.48.28-2.7.85-3.65.56-.96,1.28-1.67,2.15-2.15.87-.48,1.75-.72,2.65-.72.67,0,1.2.04,1.59.11.39.07.75.17,1.07.28l.65-4.09c-.29-.14-.65-.25-1.09-.33Z"/>
	<path class="cls-1" d="M34.52,131.54c10.03,5.98,21.94,8.98,35.73,8.98s25.87-2.99,35.9-8.98c10.03-5.98,17.66-14.1,22.91-24.36,5.24-10.26,7.86-21.65,7.86-34.19s-2.62-23.93-7.86-34.19c-5.24-10.26-12.88-18.38-22.91-24.36-10.03-5.98-22-8.98-35.9-8.98s-25.7,2.99-35.73,8.98c-10.03,5.98-17.67,14.1-22.91,24.36-5.24,10.26-7.86,21.66-7.86,34.19s2.62,23.93,7.86,34.19c5.24,10.26,12.88,18.38,22.91,24.36ZM44.61,32.9c4.79-11.45,13.33-17.18,25.64-17.18s21.17,5.7,25.9,17.1c4.73,11.4,7.09,24.79,7.09,40.18s-2.39,28.84-7.18,40.35c-4.79,11.51-13.39,17.27-25.81,17.27s-20.86-5.75-25.64-17.27c-4.79-11.51-7.18-24.96-7.18-40.35s2.39-28.64,7.18-40.09Z"/>
	<path class="cls-1" d="M192.08,132.48c-7.07-1.03-12.05-2.33-14.96-3.93-2.91-1.59-4.36-3.82-4.36-6.67,0-1.94.62-4.62,1.88-8.04l4.96-12.99h38.47l6.84,18.46c1.03,2.74,1.54,5.02,1.54,6.84,0,2.28-1.2,3.85-3.59,4.7-2.39.85-6.78,1.4-13.16,1.62v6.33h70.44v-6.33c-4.33-.34-7.58-.8-9.74-1.37-2.17-.57-3.88-1.54-5.13-2.91-1.26-1.37-2.45-3.42-3.59-6.15L212.77,3.75l-25.47,9.74,7.86,17.61-32.31,82.4c-1.94,5.02-3.68,8.63-5.21,10.86-1.54,2.22-3.62,3.91-6.24,5.04-2.62,1.14-6.73,2.17-12.31,3.08v6.33h53v-6.33ZM198.92,50.59h.68l14.87,40.52h-31.11l15.56-40.52Z"/>
	<path class="cls-1" d="M359.62,56.92l30.09-32.82c2.85-3.19,5.81-5.44,8.89-6.75,3.08-1.31,8.55-2.59,16.41-3.85v-6.33h-49.07v6.15c4.44.23,7.75.71,9.92,1.45,2.16.74,3.25,1.91,3.25,3.5,0,1.94-.8,3.7-2.39,5.3l-41.03,44.11V16.91l14.36-3.42v-6.33h-58.3v6.33l14.53,3.42v111.98l-14.53,3.59v6.33h58.3v-6.33l-14.36-3.59v-46.16l3.76-3.93,42.06,60.01h45.65v-6.33l-15.56-3.25-51.97-72.32Z"/>
	<polygon class="cls-1" points="81.59 214.16 81.59 179.76 8.15 179.76 8.15 184.76 76.59 184.76 76.59 226.35 118.6 183.78 427.06 183.78 427.06 178.78 116.51 178.78 81.59 214.16"/>
</svg>
