<?xml version="1.0" encoding="UTF-8"?>
<svg xmlns="http://www.w3.org/2000/svg" width="40.65" height="26" viewBox="0 0 430.51 230.1">
	<defs>
		<style>
			.cls-1 {
				fill: #000;
				stroke-width: 0px;
			}
		</style>
	</defs>
	<path class="cls-1" d="M34.52,131.54c10.03,5.98,21.94,8.98,35.73,8.98s25.87-2.99,35.9-8.98c10.03-5.98,17.66-14.1,22.91-24.36,5.24-10.26,7.86-21.65,7.86-34.19s-2.62-23.93-7.86-34.19c-5.24-10.26-12.88-18.38-22.91-24.36-10.03-5.98-22-8.98-35.9-8.98s-25.7,2.99-35.73,8.98c-10.03,5.98-17.67,14.1-22.91,24.36-5.24,10.26-7.86,21.66-7.86,34.19s2.62,23.93,7.86,34.19c5.24,10.26,12.88,18.38,22.91,24.36ZM44.61,32.9c4.79-11.45,13.33-17.18,25.64-17.18s21.17,5.7,25.9,17.1c4.73,11.4,7.09,24.79,7.09,40.18s-2.39,28.84-7.18,40.35c-4.79,11.51-13.39,17.27-25.81,17.27s-20.86-5.75-25.64-17.27c-4.79-11.51-7.18-24.96-7.18-40.35s2.39-28.64,7.18-40.09Z"/>
	<path class="cls-1" d="M192.08,132.48c-7.07-1.03-12.05-2.33-14.96-3.93-2.91-1.59-4.36-3.82-4.36-6.67,0-1.94.62-4.62,1.88-8.04l4.96-12.99h38.47l6.84,18.46c1.03,2.74,1.54,5.02,1.54,6.84,0,2.28-1.2,3.85-3.59,4.7-2.39.85-6.78,1.4-13.16,1.62v6.33h70.44v-6.33c-4.33-.34-7.58-.8-9.74-1.37-2.17-.57-3.88-1.54-5.13-2.91-1.26-1.37-2.45-3.42-3.59-6.15L212.77,3.75l-25.47,9.74,7.86,17.61-32.31,82.4c-1.94,5.02-3.68,8.63-5.21,10.86-1.54,2.22-3.62,3.91-6.24,5.04-2.62,1.14-6.73,2.17-12.31,3.08v6.33h53v-6.33ZM198.92,50.59h.68l14.87,40.52h-31.11l15.56-40.52Z"/>
	<path class="cls-1" d="M411.59,129.23l-51.97-72.32,30.09-32.82c2.85-3.19,5.81-5.44,8.89-6.75,3.08-1.31,8.55-2.59,16.41-3.85v-6.33h-49.07v6.15c4.44.23,7.75.71,9.92,1.45,2.16.74,3.25,1.91,3.25,3.5,0,1.94-.8,3.7-2.39,5.3l-41.03,44.11V16.91l14.36-3.42v-6.33h-58.3v6.33l14.53,3.42v111.98l-14.53,3.59v6.33h58.3v-6.33l-14.36-3.59v-46.16l3.76-3.93,42.06,60.01h45.65v-6.33l-15.56-3.25Z"/>
	<polygon class="cls-1" points="81.59 214.16 81.59 179.76 8.15 179.76 8.15 184.76 76.59 184.76 76.59 226.35 118.6 183.78 427.06 183.78 427.06 178.78 116.51 178.78 81.59 214.16"/>
</svg>
