<?xml version="1.0" encoding="UTF-8"?>
<svg xmlns="http://www.w3.org/2000/svg" viewBox="0 0 512 512">
	<defs>
		<style>
			.cls-1 {
				fill: #000;
				stroke-width: 0px;
			}
		</style>
	</defs>
	<path class="cls-1" d="M178.52,287.9c21.69,12.94,47.46,19.42,77.3,19.42s55.97-6.47,77.67-19.42c21.69-12.95,38.21-30.51,49.56-52.7,11.34-22.19,17.01-46.84,17.01-73.97s-5.67-51.78-17.01-73.97c-11.34-22.19-27.87-39.76-49.56-52.7-21.7-12.94-47.59-19.42-77.67-19.42s-55.6,6.47-77.3,19.42c-21.7,12.94-38.22,30.51-49.56,52.7-11.34,22.19-17.01,46.85-17.01,73.97s5.67,51.78,17.01,73.97c11.34,22.19,27.86,39.76,49.56,52.7ZM200.34,74.5c10.36-24.78,28.85-37.17,55.48-37.17s45.8,12.33,56.03,36.98c10.23,24.66,15.35,53.63,15.35,86.91s-5.18,62.38-15.53,87.29c-10.35,24.91-28.98,37.35-55.85,37.35s-45.12-12.45-55.48-37.35c-10.36-24.9-15.53-54-15.53-87.29s5.18-61.95,15.53-86.73Z"/>
	<polygon class="cls-1" points="280.33 466.65 280.33 392.21 121.46 392.21 121.46 403.03 269.52 403.03 269.52 493.01 360.41 400.9 400.04 400.9 400.04 390.09 355.89 390.09 280.33 466.65"/>
</svg>
