<svg xmlns="http://www.w3.org/2000/svg" viewBox="0 0 395.8 148.37"><path style="stroke-width:0;fill:#145761" d="M13.38 106.03h144.57v28.35H13.38z"/><path style="stroke-width:0;fill:#5e7f87" d="M99.7 73.43h144.57v28.35H99.7z"/><path style="fill:#a1b0b6;stroke-width:0" d="M153.51 40.84h144.57v28.35H153.51z"/><path style="fill:#cfd5d9;stroke-width:0" d="M235.57 8.24h144.57v28.35H235.57z"/><path style="stroke-width:0;fill:#145761" d="M46.53 28.44c3.28 1.96 5.79 4.62 7.5 7.98 1.72 3.36 2.58 7.09 2.58 11.2s-.86 7.84-2.58 11.2c-1.72 3.36-4.22 6.02-7.5 7.98-3.29 1.96-7.21 2.94-11.76 2.94s-8.42-.98-11.7-2.94c-3.29-1.96-5.79-4.62-7.5-7.98-1.72-3.36-2.58-7.09-2.58-11.2s.86-7.84 2.58-11.2c1.72-3.36 4.22-6.02 7.5-7.98 3.28-1.96 7.19-2.94 11.7-2.94s8.47.98 11.76 2.94Zm-20.16 32.4c1.57 3.77 4.37 5.66 8.4 5.66s6.89-1.88 8.46-5.66c1.57-3.77 2.35-8.18 2.35-13.22s-.77-9.43-2.32-13.16c-1.55-3.73-4.38-5.6-8.48-5.6s-6.83 1.88-8.4 5.63c-1.57 3.75-2.35 8.13-2.35 13.13s.78 9.45 2.35 13.22Zm69.56 4.86c.41.45.97.77 1.68.95.71.19 1.77.34 3.19.45v2.07H77.73V67.1c2.09-.08 3.53-.25 4.31-.53.78-.28 1.18-.79 1.18-1.54 0-.6-.17-1.34-.5-2.24l-2.24-6.05h-12.6L66.26 61c-.41 1.12-.62 2-.62 2.63 0 .93.48 1.66 1.43 2.18.95.52 2.58.95 4.9 1.29v2.07H54.61V67.1c1.83-.3 3.17-.63 4.03-1.01.86-.37 1.54-.92 2.04-1.65.5-.73 1.07-1.91 1.71-3.56l10.58-26.99-2.58-5.77 8.34-3.19 16.02 38.75c.37.9.76 1.57 1.18 2.02ZM79.3 53.55l-4.87-13.27h-.22l-5.1 13.27H79.3Zm28.64 12.38V29.25l-4.76-1.12v-2.07h19.1v2.07l-4.7 1.12v16.63l13.44-14.45c.52-.52.78-1.1.78-1.74 0-.52-.35-.91-1.06-1.15-.71-.24-1.79-.4-3.25-.48v-2.02h16.07v2.07c-2.58.41-4.37.83-5.38 1.26-1.01.43-1.98 1.17-2.91 2.21l-9.86 10.75 17.02 23.69 5.1 1.06v2.07h-14.95L118.8 49.49l-1.23 1.29V65.9l4.7 1.18v2.07h-19.1v-2.07l4.76-1.18Zm217.84-5.2c0 6.09-3.48 9.86-9.05 9.86s-9.02-3.77-9.02-9.86 3.48-9.86 9.02-9.86 9.05 3.77 9.05 9.86Zm-14.82 0c0 4.55 2.17 7.17 5.77 7.17s5.8-2.61 5.8-7.17-2.18-7.17-5.8-7.17-5.77 2.61-5.77 7.17Zm33.1 2.29c0 4.76-2.5 7.57-6.44 7.57-2.15 0-3.8-1.04-4.67-2.64v8.44h-3.1V55.8h2.73l.15 2.67c.84-1.77 2.61-2.96 4.93-2.96 3.94 0 6.41 2.79 6.41 7.51Zm-3.1.03c0-3.16-1.51-5.05-4-5.05s-4 1.83-4 4.87v.35c0 3.02 1.57 4.84 4 4.84s4-1.86 4-5.02Zm19.79 1.16h-10.62c.35 2.55 1.86 3.92 4.21 3.92 1.92 0 3.19-.7 3.66-1.97l2.58 1.07c-1.04 2.15-3.05 3.37-6.24 3.37-4.58 0-7.28-2.81-7.28-7.54s2.55-7.54 7.08-7.54 6.73 2.9 6.73 7.11c0 .55-.06 1.22-.12 1.6Zm-10.59-2.38h7.8c-.29-2.44-1.65-3.86-3.83-3.86-2.29 0-3.66 1.36-3.97 3.86Zm27.61-.93v9.4h-3.1v-8.41c0-2.87-1.33-3.83-3.1-3.83-1.91 0-3.94 1.22-3.94 4.55v7.69h-3.1V55.8h2.76l.15 2.44c.99-1.91 2.81-2.73 4.9-2.73 3.08 0 5.45 1.77 5.45 5.4Zm-82.9 36.38h-8.06l-1.83 5.02h-3.19l7.22-19.14h3.71l7.22 19.14h-3.28l-1.8-5.02Zm-.93-2.52-2.21-6.15-.87-2.75h-.09l-.81 2.7-2.26 6.21h6.24Zm21.17-3.19-2.9 1.16c-.49-1.8-1.59-2.76-3.39-2.76-2.58 0-4.09 1.83-4.09 5.11s1.54 5.05 4.09 5.05c2 0 3.19-1.02 3.57-2.81l2.84.96c-.81 2.64-2.99 4.32-6.35 4.32-4.58 0-7.28-2.81-7.28-7.54s2.7-7.54 7.22-7.54c3.51 0 5.4 1.68 6.29 4.06Zm16.26 0-2.9 1.16c-.49-1.8-1.59-2.76-3.39-2.76-2.58 0-4.09 1.83-4.09 5.11s1.54 5.05 4.09 5.05c2 0 3.19-1.02 3.57-2.81l2.84.96c-.81 2.64-2.99 4.32-6.35 4.32-4.58 0-7.28-2.81-7.28-7.54s2.7-7.54 7.22-7.54c3.51 0 5.4 1.68 6.29 4.06Zm16.43 4.64h-10.62c.35 2.55 1.86 3.92 4.21 3.92 1.92 0 3.19-.7 3.66-1.97l2.58 1.07c-1.04 2.15-3.05 3.37-6.24 3.37-4.58 0-7.28-2.81-7.28-7.54s2.55-7.54 7.08-7.54 6.73 2.9 6.73 7.11c0 .55-.06 1.22-.12 1.6Zm-10.59-2.38h7.8c-.29-2.44-1.65-3.86-3.83-3.86-2.29 0-3.66 1.36-3.97 3.86Zm13.29 5.71 2.09-1.8c.75 1.74 2.47 2.41 4.5 2.41s3.1-.75 3.1-1.74c0-.9-.84-1.42-3.37-1.92-4.32-.81-5.83-2.06-5.83-4.5s2.2-4.5 6.09-4.5c3.22 0 5.05 1.04 6.09 3.28l-2.2 1.62c-.73-1.74-1.97-2.46-3.86-2.46s-3.02.87-3.02 1.77c0 1.04.84 1.59 3.57 2.09 4.15.75 5.63 2 5.63 4.41 0 2.55-2.32 4.38-6.32 4.38-2.81 0-5.25-.93-6.47-3.05Zm15.41 0 2.09-1.8c.75 1.74 2.47 2.41 4.5 2.41s3.1-.75 3.1-1.74c0-.9-.84-1.42-3.37-1.92-4.32-.81-5.83-2.06-5.83-4.5s2.2-4.5 6.09-4.5c3.22 0 5.05 1.04 6.09 3.28l-2.2 1.62c-.73-1.74-1.97-2.46-3.86-2.46s-3.02.87-3.02 1.77c0 1.04.84 1.59 3.57 2.09 4.15.75 5.63 2 5.63 4.41 0 2.55-2.32 4.38-6.32 4.38-2.81 0-5.25-.93-6.47-3.05Zm-142.28 25.54-3.1 3.34v5.89h-3.1v-19.14h3.1v9.54l8.79-9.54h3.8l-7.25 7.83 7.43 11.31h-3.66l-6-9.22Zm25.41 1.97c0 4.73-2.7 7.54-7.22 7.54s-7.22-2.81-7.22-7.54 2.7-7.54 7.22-7.54 7.22 2.81 7.22 7.54Zm-11.31 0c0 3.28 1.48 5.11 4.09 5.11s4.12-1.83 4.12-5.11-1.51-5.1-4.12-5.1-4.09 1.83-4.09 5.1Zm37.83-2.15v9.4h-3.1v-8.91c0-2.38-1.28-3.34-2.99-3.34-2.03 0-3.77 1.54-3.77 4.35v7.89h-3.1v-8.91c0-2.38-1.28-3.34-2.99-3.34s-3.77 1.28-3.77 4.53v7.72h-3.1v-14.5h2.76l.15 2.41c1.01-1.83 2.81-2.7 4.7-2.7 2.06 0 4 .93 4.87 2.9.96-1.97 3.07-2.9 5.02-2.9 2.79 0 5.37 1.71 5.34 5.4Zm27.21 0v9.4h-3.1v-8.91c0-2.38-1.28-3.34-2.99-3.34-2.03 0-3.77 1.54-3.77 4.35v7.89h-3.1v-8.91c0-2.38-1.28-3.34-2.99-3.34s-3.77 1.28-3.77 4.53v7.72h-3.1v-14.5h2.76l.15 2.41c1.01-1.83 2.81-2.7 4.7-2.7 2.06 0 4 .93 4.87 2.9.96-1.97 3.07-2.9 5.02-2.9 2.79 0 5.37 1.71 5.34 5.4Zm17.28 3.31h-10.62c.35 2.55 1.86 3.92 4.21 3.92 1.92 0 3.19-.7 3.66-1.97l2.58 1.07c-1.04 2.15-3.05 3.37-6.24 3.37-4.58 0-7.28-2.81-7.28-7.54s2.55-7.54 7.08-7.54 6.73 2.9 6.73 7.11c0 .55-.06 1.22-.12 1.6Zm-10.59-2.38h7.8c-.29-2.44-1.65-3.86-3.83-3.86-2.29 0-3.66 1.36-3.97 3.86Zm27.61-.93v9.4h-3.1v-8.41c0-2.87-1.33-3.83-3.1-3.83-1.91 0-3.94 1.22-3.94 4.55v7.69h-3.1v-14.5h2.76l.15 2.44c.99-1.91 2.81-2.73 4.9-2.73 3.07 0 5.45 1.77 5.45 5.4Zm13.8 8.44c-.93.78-2.29 1.25-3.86 1.25-2.5 0-4.41-1.13-4.44-4.12v-8.24h-2.76v-2.44h2.76v-3.39l3.1-.87v4.26h5.08v2.44h-5.08v7.72c0 1.42.84 2.06 2.12 2.06.99 0 1.71-.35 2.35-.93l.72 2.26Zm16.73-1.19-.2 2.09c-.46.2-1.07.35-1.8.35-1.57 0-2.64-.58-2.96-2.18-.9 1.39-2.76 2.18-4.9 2.18-2.73 0-4.73-1.28-4.73-3.8 0-2.23 1.86-3.89 5.66-4.55l3.68-.67v-.75c0-1.74-1.07-2.87-2.96-2.87s-3.13.78-3.74 2.61l-2.41-1.28c.7-2.29 2.93-3.77 6.09-3.77 3.63 0 6.12 1.65 6.12 5.13v6.56c0 .73.29 1.07 1.07 1.07.38 0 .75-.03 1.07-.12Zm-5.25-2.67v-1.74l-3.16.64c-1.97.38-2.96 1.04-2.96 2.2 0 1.07.81 1.65 2.18 1.65 1.94 0 3.95-1.02 3.95-2.76Zm17.19-9.68-.49 2.84c-.41-.23-1.04-.38-1.83-.38-1.74 0-3.65 1.39-3.65 4.35v7.69h-3.1v-14.5h2.64l.29 2.58c.78-1.89 2.32-2.87 4.55-2.87.58 0 1.19.09 1.59.29Z"/></svg>